<svg xmlns="http://www.w3.org/2000/svg" xmlns:xlink="http://www.w3.org/1999/xlink" aria-hidden="true" role="img" class="iconify iconify--noto-v1" width="32" height="32" preserveAspectRatio="xMidYMid meet" viewBox="0 0 128 128"><path d="M106.66 54.63c1.52.57 3.08-.41 3.81-1.91c.73-1.51.66-3.44-.65-4.62c0 0-18.53-14.99-20.35-16.21c-1.82-1.21-4.8-1.41-6.24.74c-1.64 2.43-1.15 4.38 1.9 6.6c3.04 2.21 21.53 15.4 21.53 15.4z" fill="#fff"></path><path d="M105.82 56.87c-.19-.07-.38-.17-.55-.29c0 0-18.51-13.19-21.56-15.41c-4.06-2.95-4.89-6.28-2.48-9.87c1.15-1.72 3.07-2.7 5.26-2.7c1.52 0 3.05.46 4.31 1.3c1.86 1.24 18.63 14.8 20.63 16.42c2 1.8 2.48 4.79 1.2 7.44c-1.01 2.08-3 3.43-5.06 3.43c-.6 0-1.19-.11-1.75-.32zM85.21 33.96c-.67 1-1.07 1.59 1.32 3.33c2.77 2.01 18.36 13.12 21.11 15.09c.17-.06.47-.29.67-.71c.29-.59.35-1.4 0-1.71c-7.42-6-18.91-15.23-20.18-16.08c-.46-.31-1.08-.5-1.65-.5c-.88 0-1.17.44-1.27.58z" fill="#2f2f2f"></path><path fill="#fff" d="M65.31 68.61h13.73v5.01H65.31z"></path><path d="M65.31 78.18h13.73a4.55 4.55 0 0 0 4.55-4.56v-5.01c0-2.52-2.04-4.55-4.55-4.55H65.31c-2.52 0-4.56 2.04-4.56 4.55v5.01c0 2.52 2.04 4.56 4.56 4.56z" fill="#2f2f2f"></path><path fill="#fff" d="M70.85 75.67h1.84v28.62h-1.84z"></path><path d="M70.85 107.25h1.84c1.64 0 2.96-1.32 2.96-2.96V75.67a2.96 2.96 0 0 0-2.96-2.96h-1.84c-1.64 0-2.96 1.32-2.96 2.96v28.62a2.96 2.96 0 0 0 2.96 2.96z" fill="#2f2f2f"></path><path fill="#fff" d="M71.58 105.21v16"></path><path d="M71.58 123.61a2.4 2.4 0 0 0 2.4-2.4v-16a2.4 2.4 0 0 0-4.8 0v16c.01 1.32 1.08 2.4 2.4 2.4z" fill="#2f2f2f"></path><path fill="#fff" d="M74.916 76.562l1.988-1.053l16.398 30.956l-1.988 1.053z"></path><path d="M91.29 110.48c.48 0 .95-.12 1.39-.35l1.99-1.05a2.964 2.964 0 0 0 1.23-4L79.53 74.12c-.77-1.44-2.56-1.99-3.99-1.23l-1.99 1.06c-.7.36-1.22.99-1.45 1.74c-.23.75-.16 1.56.21 2.25l16.38 30.97c.37.7.99 1.21 1.74 1.45c.28.08.57.12.86.12z" fill="#2f2f2f"></path><path fill="#fff" d="M92.62 108.1l9.15 17.31"></path><path d="M101.77 127.81a2.398 2.398 0 0 0 2.12-3.52l-9.15-17.31a2.406 2.406 0 0 0-3.24-1a2.398 2.398 0 0 0-1 3.24l9.15 17.31c.43.81 1.26 1.28 2.12 1.28z" fill="#2f2f2f"></path><g><path fill="#fff" d="M48.617 105.38l18.18-29.943l1.924 1.167l-18.18 29.944z"></path><path d="M50.54 109.5c.24 0 .47-.03.7-.08c.76-.19 1.42-.67 1.83-1.34l18.19-29.94c.41-.68.53-1.47.34-2.24c-.19-.76-.67-1.42-1.34-1.83l-1.93-1.17c-1.39-.85-3.21-.4-4.06.99l-18.19 29.94c-.85 1.39-.4 3.21.99 4.06l1.92 1.17c.48.29 1.01.44 1.55.44z" fill="#2f2f2f"></path><g><path fill="#fff" d="M49.18 107.03l-10.16 16.74"></path><path d="M39.01 126.16c.81 0 1.6-.41 2.05-1.15l10.16-16.74a2.39 2.39 0 0 0-.8-3.29c-1.13-.69-2.6-.33-3.29.8l-10.16 16.73a2.39 2.39 0 0 0 .8 3.29c.39.25.82.36 1.24.36z" fill="#2f2f2f"></path></g></g><g fill="#2f2f2f"><path d="M96.14 74.75c4.61 1.65 9.23-1.37 11.35-5.92c2.11-4.56 1.82-10.39-2.18-13.86l-38.8-28.09l-15.18 28.16l44.81 19.71z"></path><path d="M95.05 77.21L50.25 57.5a2.69 2.69 0 0 1-1.28-3.74l15.18-28.17c.37-.68 1.01-1.17 1.77-1.35c.75-.17 1.55-.01 2.18.45l38.79 28.09l.18.15c5.3 4.59 5.25 11.86 2.86 17.02c-2.24 4.82-6.63 7.94-11.2 7.94c-1.19.01-2.36-.2-3.68-.68zM67.42 30.86L55.08 53.75l41.96 18.47c2.94 1.06 6.35-.97 8-4.53c1.53-3.3 1.67-7.86-1.42-10.62l-36.2-26.21z"></path></g><g fill="#2f2f2f"><path d="M110.96 75.48c1.85.67 3.7-.55 4.55-2.37c.85-1.83.73-4.17-.88-5.56L99.08 56.29L93 67.58l17.96 7.9z"></path><path d="M110.53 76.47l-17.97-7.9c-.28-.12-.49-.35-.59-.64c-.1-.28-.07-.6.07-.86l6.08-11.3a1.072 1.072 0 0 1 1.58-.36l15.63 11.32c2.12 1.84 2.1 4.76 1.15 6.82c-.89 1.94-2.66 3.19-4.49 3.19c-.47.01-.94-.07-1.46-.27zM94.5 67.06l16.83 7.41c1.18.43 2.54-.39 3.2-1.82c.62-1.34.67-3.18-.53-4.23L99.44 57.88l-4.94 9.18z"></path></g><g><path d="M86.28 71.16c5.25 1.88 10.51-1.55 12.91-6.74c2.4-5.19 2.07-11.82-2.49-15.77L52.56 16.66L35.29 48.72l50.99 22.44z" fill="#ceced2"></path><path d="M85.25 74.04c-.07-.02-.13-.05-.2-.08l-51-22.44c-.78-.34-1.38-.99-1.66-1.8s-.21-1.7.2-2.45L49.86 15.2c.42-.78 1.15-1.33 2.01-1.53c.86-.19 1.76-.01 2.48.51L98.5 46.16c.07.05.15.11.21.17c6.03 5.23 5.98 13.5 3.26 19.37c-2.55 5.49-7.55 9.04-12.74 9.04c-1.34 0-2.69-.24-3.98-.7zM53.6 21.19L39.56 47.25L87.41 68.3c3.33 1.13 7.15-1.18 9.01-5.18c1.68-3.64 1.89-8.95-1.62-12.09L53.6 21.19z" fill="#2f2f2f"></path></g><g><g fill="#2f2f2f"><path d="M28.38 24.98c-5.19 11.19-2.63 23.39 5.69 27.24c8.33 3.86 19.28-2.09 24.46-13.28s2.63-23.38-5.69-27.24c-8.33-3.85-19.28 2.09-24.46 13.28z"></path><path d="M32.83 54.9c-9.78-4.54-12.98-18.51-7.12-31.15c4.47-9.66 13.2-16.16 21.71-16.16c2.35 0 4.59.49 6.67 1.45c9.78 4.53 12.97 18.5 7.12 31.15C56.72 49.85 48 56.34 39.49 56.34c-2.34 0-4.59-.48-6.66-1.44zm-1.78-28.68c-4.49 9.7-2.58 20.16 4.26 23.33c1.29.6 2.7.9 4.19.9c6.25 0 12.83-5.12 16.37-12.75c4.49-9.7 2.58-20.16-4.25-23.33c-1.29-.6-2.7-.9-4.19-.9c-6.27 0-12.85 5.12-16.38 12.75z"></path></g><path d="M32.7 54.96l-13.4-6.72a3.081 3.081 0 0 1-1.54-1.8c-.25-.79-.18-1.63.2-2.36l21.5-41.02c.4-.78 1.12-1.34 1.96-1.55c.85-.22 1.75-.06 2.47.43l10.68 7.22a3.04 3.04 0 0 1 1.06 3.82L36.85 53.51c-.35.75-.98 1.33-1.77 1.6c-.33.12-.67.17-1.01.17c-.47.01-.94-.1-1.37-.32zM43.29 8.94L24.83 44.16l7.79 3.91l16.35-35.29l-5.68-3.84z" fill="#2f2f2f"></path><path d="M16.72 18.3c-5.39 11.64-2.74 24.33 5.92 28.34c8.66 4.01 20.05-2.18 25.44-13.82c5.39-11.63 2.74-24.32-5.91-28.33C33.5.47 22.11 6.65 16.72 18.3z" fill="#40c0e7"></path><path d="M21.35 49.42c-10.18-4.72-13.5-19.26-7.41-32.41C18.59 6.95 27.67.19 36.52.19c2.44 0 4.77.51 6.93 1.51c5.08 2.36 8.61 7.14 9.93 13.46c1.25 5.99.35 12.72-2.53 18.94c-4.65 10.06-13.72 16.82-22.57 16.82c-2.44 0-4.77-.51-6.93-1.5zM19.5 19.58c-4.67 10.08-2.69 20.97 4.42 24.27c1.34.62 2.81.94 4.35.94c6.51 0 13.35-5.33 17.02-13.27c2.34-5.03 3.08-10.4 2.09-15.11c-.91-4.38-3.23-7.63-6.51-9.16a10.35 10.35 0 0 0-4.36-.94c-6.5.01-13.34 5.34-17.01 13.27z" fill="#2f2f2f"></path><path d="M26.02 21.48h-.22c-2.71.15-3.47 5.75-3.77 7.67c-.53 3.43-.15 7.29 2.32 9.93c.87.93 2.6 1.85 3.81 1.01c1.65-1.13.18-2.71-.48-3.9c-1.76-3.23-1.48-7.25-.28-10.62c.5-1.39.63-4.02-1.38-4.09z" fill-rule="evenodd" clip-rule="evenodd" fill="#fff"></path></g><g fill="#2f2f2f"><path d="M106.57 45.76c-.31 1.64.09 2.51-.97 3.92c-.58.78-1.25 1.52-2.08 2.03c.23.29.54.47.82.73c.73.65 1.5 1.43 2.41 1.81c1.47.62 3.06.45 3.83-1.15c.41-.85.55-2.15.44-3.09c-.17-1.44-1.98-2.71-3.08-3.48c-.24-.19-1.1-.84-1.37-.77z"></path><path d="M106.33 55.23c-.95-.4-1.74-1.11-2.43-1.74l-.29-.26c-.08-.07-.17-.14-.25-.2c-.21-.17-.46-.37-.69-.65c-.19-.24-.27-.55-.22-.86c.06-.3.24-.57.5-.73c.74-.45 1.34-1.18 1.77-1.76c.52-.69.55-1.14.6-1.95c.03-.45.06-.94.17-1.51c.08-.41.4-.75.81-.85c.58-.14 1.21.17 2.25.92c1.23.87 3.3 2.32 3.53 4.24c.12 1.02 0 2.55-.54 3.68c-.64 1.33-1.83 2.1-3.28 2.1c-.62-.02-1.27-.16-1.93-.43zm.13-4.91c-.33.44-.75.96-1.25 1.43l.15.13c.59.54 1.2 1.09 1.81 1.35c1.1.46 2 .29 2.43-.63c.29-.61.44-1.68.34-2.49c-.1-.88-1.52-1.95-2.47-2.62c-.06.86-.19 1.75-1.01 2.83z"></path></g></svg>
