<svg xmlns="http://www.w3.org/2000/svg" xmlns:xlink="http://www.w3.org/1999/xlink" aria-hidden="true" role="img" class="iconify iconify--fa" width="32" height="32" preserveAspectRatio="xMidYMid meet" viewBox="0 0 1792 1792"><path d="M948 1028l163 329h-51l-175-350l-171 350h-49l179-374l-78-33l21-49l240 102l-21 50zM563 436l304 130l-130 304l-304-130zm344 185l240 103l-103 239l-239-102zm281 150l191 81l-82 190l-190-81zm492 125q0-159-62-304t-167.5-250.5T1200 174t-304-62t-304 62t-250.5 167.5T174 592t-62 304t62 304t167.5 250.5T592 1618t304 62t304-62t250.5-167.5T1618 1200t62-304zm112 0q0 182-71 348t-191 286t-286 191t-348 71t-348-71t-286-191t-191-286T0 896t71-348t191-286T548 71T896 0t348 71t286 191t191 286t71 348z" fill="currentColor"></path></svg>